<svg width="149" height="149" viewBox="0 0 149 149" fill="none" xmlns="http://www.w3.org/2000/svg">
<path d="M74.8065 0.737751C34.1052 0.60186 1.00047 33.4863 0.864575 74.1876C0.817205 88.3756 4.81653 101.619 11.6962 112.905C11.2829 112.227 11.8322 113.132 11.6962 112.905C11.6962 112.905 17.2903 120.394 29.1852 119.403C39.6565 136.658 56.0434 147.806 74.5856 147.936L74.585 148.127C115.162 148.116 148.121 115.29 148.256 74.6797C148.392 33.9784 115.508 0.873641 74.8065 0.737751Z" fill="url(#paint0_linear_2_3212)"/>
<path d="M74.3144 148.13C115.016 148.265 148.12 115.381 148.256 74.6797C148.392 33.9786 115.508 0.873641 74.8065 0.737751C34.1054 0.60186 1.00047 33.4865 0.864575 74.1876C0.728684 114.889 33.6133 147.994 74.3144 148.13Z" fill="url(#paint1_radial_2_3212)"/>
<path d="M5.29395 49.1429C2.23095 57.2031 0.895264 65.0554 0.864776 74.1872C0.728886 114.888 34.4943 147.68 74.3146 148.129C106.077 148.487 134.257 127.431 144.323 98.5205L5.29395 49.1429Z" fill="url(#paint2_linear_2_3212)"/>
<path d="M122.95 19.1449C111.244 4.62906 77.3576 15.2232 45.699 40.7547C39.0855 46.0881 33.3211 51.7695 28.4317 57.5423L74.5131 73.4178L11.8832 113.23C23.2003 126.989 57.411 117.273 88.78 91.9753C120.439 66.4441 134.657 33.6619 122.95 19.1449Z" fill="url(#paint3_linear_2_3212)" fill-opacity="0.7"/>
<path d="M74.2132 147.873L74.4603 73.8606L129.795 93.1026C129.795 93.1026 136.196 59.4413 126.878 37.6937C112.805 4.85043 87.5594 0.0387623 74.7045 0.734499C53.7288 0.0735423 13.4376 17.5164 17.289 73.6697C21.5152 135.288 57.0756 148.111 74.2132 147.873Z" fill="url(#paint4_linear_2_3212)" fill-opacity="0.5"/>
<g style="mix-blend-mode:screen">
<path d="M120.637 75.2888C120.502 115.693 75.0204 109.096 75.0204 109.096C75.0204 109.096 29.4957 115.39 29.6306 74.985C29.7655 34.5807 50.251 0.822413 75.3816 0.906318C100.512 0.990008 120.772 34.8845 120.637 75.2888Z" fill="url(#paint5_linear_2_3212)" fill-opacity="0.5"/>
</g>
<path opacity="0.8" d="M123.165 19.1455C134.872 33.6622 120.814 66.8213 89.1545 92.3524C57.4956 117.884 21.2263 126.801 11.6964 112.905C2.00244 98.7697 14.2542 66.2865 45.9134 40.7553C77.5719 15.2237 111.458 4.62963 123.165 19.1455Z" fill="url(#paint6_linear_2_3212)"/>
<path d="M122.014 17.8696C122.418 18.2713 122.802 18.6964 123.165 19.1457C134.872 33.6624 119.849 66.8182 88.1897 92.3494C56.6273 117.803 21.3766 127.376 11.2831 112.227C24.7481 134.284 48.5061 148.043 74.5292 148.13C115.23 148.266 148.335 115.382 148.471 74.6806C148.547 51.867 138.247 31.4418 122.014 17.8696Z" fill="url(#paint7_linear_2_3212)" fill-opacity="0.5"/>
<g style="mix-blend-mode:multiply" opacity="0.9">
<path d="M136.716 95.6149L74.6187 73.8057L74.3712 147.952C74.3712 147.952 98.2088 149.814 120.246 132.293C136.988 116.593 136.716 95.6149 136.716 95.6149Z" fill="url(#paint8_linear_2_3212)" fill-opacity="0.7"/>
</g>
<path opacity="0.5" d="M74.3144 148.13C115.016 148.265 148.12 115.381 148.256 74.6797C148.392 33.9786 115.508 0.873641 74.8065 0.737751C34.1054 0.60186 1.00047 33.4865 0.864575 74.1876C0.728684 114.889 33.6133 147.994 74.3144 148.13Z" fill="url(#paint9_radial_2_3212)" fill-opacity="0.7"/>
<path opacity="0.3" d="M0.770139 76.8359C0.8324 58.1878 27.2858 43.1585 74.5239 43.3162C121.762 43.4739 146.965 61.0285 148.019 77.3275C149.072 93.6265 117.766 111.898 74.4952 110.842C31.2242 109.785 0.708433 95.3176 0.770139 76.8359Z" fill="url(#paint10_linear_2_3212)"/>
<g style="mix-blend-mode:multiply">
<path d="M74.5704 74.0824L74.1498 0.954102C79.0248 0.97038 89.9473 1.64947 99.4835 12.6725C109.02 23.6955 111.8 40.4502 112.66 48.2828L74.5704 74.0824Z" fill="url(#paint11_linear_2_3212)" fill-opacity="0.3"/>
</g>
<defs>
<linearGradient id="paint0_linear_2_3212" x1="130.405" y1="125.274" x2="-29.9571" y2="34.3836" gradientUnits="userSpaceOnUse">
<stop offset="0.046875" stop-color="#E62519"/>
<stop offset="1" stop-color="white" stop-opacity="0.5"/>
</linearGradient>
<radialGradient id="paint1_radial_2_3212" cx="0" cy="0" r="1" gradientUnits="userSpaceOnUse" gradientTransform="translate(88.0733 89.5428) rotate(30.3829) scale(109.14)">
<stop offset="0.723958" stop-color="#F420C5" stop-opacity="0.21"/>
<stop offset="1" stop-color="#FFECFD"/>
</radialGradient>
<linearGradient id="paint2_linear_2_3212" x1="12.7637" y1="42.1234" x2="59.2574" y2="78.0337" gradientUnits="userSpaceOnUse">
<stop stop-color="#FFE0C2" stop-opacity="0.5"/>
<stop offset="1" stop-color="#FBD37E" stop-opacity="0.1"/>
</linearGradient>
<linearGradient id="paint3_linear_2_3212" x1="139.409" y1="1.39395" x2="0.723964" y2="123.696" gradientUnits="userSpaceOnUse">
<stop stop-color="#FB42C7"/>
<stop offset="1" stop-color="#FF998B"/>
</linearGradient>
<linearGradient id="paint4_linear_2_3212" x1="74.7076" y1="0.665467" x2="74.2161" y2="147.878" gradientUnits="userSpaceOnUse">
<stop stop-color="white"/>
<stop offset="1" stop-color="#FF00E5" stop-opacity="0.74"/>
</linearGradient>
<linearGradient id="paint5_linear_2_3212" x1="93.7047" y1="55.3908" x2="-0.398938" y2="55.3908" gradientUnits="userSpaceOnUse">
<stop offset="0.259365" stop-color="#FF63AE" stop-opacity="0.63"/>
<stop offset="0.932292" stop-color="white" stop-opacity="0.33"/>
</linearGradient>
<linearGradient id="paint6_linear_2_3212" x1="11.7135" y1="115.953" x2="135.632" y2="12.0661" gradientUnits="userSpaceOnUse">
<stop stop-color="#FF1F47" stop-opacity="0.17"/>
<stop offset="1" stop-color="#EC1596" stop-opacity="0.21"/>
</linearGradient>
<linearGradient id="paint7_linear_2_3212" x1="33.3837" y1="164.578" x2="189.753" y2="53.852" gradientUnits="userSpaceOnUse">
<stop stop-color="#FF9108"/>
<stop offset="0.953125" stop-color="#FAA51A"/>
</linearGradient>
<linearGradient id="paint8_linear_2_3212" x1="22.7451" y1="107.04" x2="94.0214" y2="112.46" gradientUnits="userSpaceOnUse">
<stop stop-color="#D01515"/>
<stop offset="1" stop-color="#FF0F0F" stop-opacity="0.51"/>
</linearGradient>
<radialGradient id="paint9_radial_2_3212" cx="0" cy="0" r="1" gradientUnits="userSpaceOnUse" gradientTransform="translate(53.4529 55.9811) rotate(33.2761) scale(101.331)">
<stop offset="0.869792" stop-color="#FEF0FB" stop-opacity="0"/>
<stop offset="1" stop-color="#FBECFF"/>
</radialGradient>
<linearGradient id="paint10_linear_2_3212" x1="0.79063" y1="70.5123" x2="136.516" y2="71.4087" gradientUnits="userSpaceOnUse">
<stop stop-color="#F228DE" stop-opacity="0.3"/>
<stop offset="1" stop-color="#FB0EB8" stop-opacity="0.7"/>
</linearGradient>
<linearGradient id="paint11_linear_2_3212" x1="76.4758" y1="1.18346" x2="93.2958" y2="73.9233" gradientUnits="userSpaceOnUse">
<stop stop-color="#F41AC4" stop-opacity="0.85"/>
<stop offset="1" stop-color="#FF2727" stop-opacity="0.6"/>
</linearGradient>
</defs>
</svg>
