<svg width="26" height="26" viewBox="0 0 26 26" fill="none" xmlns="http://www.w3.org/2000/svg">
<circle cx="13" cy="13" r="13" fill="#EC722B"/>
<path d="M20.9352 11.2508C20.8566 11.0178 20.709 10.8122 20.5106 10.6597C20.3123 10.5072 20.072 10.4144 19.8196 10.3929L16.1352 10.0846L14.6938 6.76191C14.5946 6.53595 14.4289 6.34322 14.2173 6.20773C14.0057 6.07225 13.7575 6 13.5038 6C13.25 6 13.0019 6.07225 12.7903 6.20773C12.5787 6.34322 12.413 6.53595 12.3138 6.76191L10.8704 10.0846L7.18608 10.3929C6.93231 10.4132 6.69039 10.5056 6.49068 10.6584C6.29097 10.8113 6.14238 11.0178 6.06353 11.252C5.98468 11.4862 5.9791 11.7378 6.04749 11.975C6.11587 12.2123 6.25517 12.4248 6.44792 12.5858L9.24803 14.9493L8.40774 18.4659C8.35011 18.7053 8.36673 18.9559 8.45551 19.1863C8.5443 19.4167 8.70131 19.6166 8.90692 19.7611C9.11253 19.9057 9.35762 19.9883 9.61155 19.9989C9.86547 20.0094 10.117 19.9472 10.3346 19.8202L13.5018 17.9594L16.6691 19.8202C16.8867 19.947 17.1381 20.009 17.3919 19.9984C17.6457 19.9878 17.8907 19.9051 18.0962 19.7606C18.3017 19.6161 18.4586 19.4162 18.5474 19.186C18.6362 18.9557 18.6528 18.7053 18.5953 18.4659L17.755 14.9493L20.5551 12.5858C20.7474 12.4242 20.886 12.2113 20.9536 11.9738C21.0212 11.7363 21.0148 11.4848 20.9352 11.2508ZM16.6206 13.9157C16.4434 14.0649 16.3115 14.258 16.2392 14.4743C16.1668 14.6906 16.1568 14.9218 16.2102 15.1432L16.9464 18.227L14.1708 16.5963C13.9693 16.4776 13.7378 16.4148 13.5018 16.4148C13.2659 16.4148 13.0344 16.4776 12.8328 16.5963L10.0573 18.227L10.7935 15.1432C10.8469 14.9218 10.8369 14.6906 10.7645 14.4743C10.6922 14.258 10.5603 14.0649 10.3831 13.9157L7.92101 11.8379L11.162 11.5666C11.3966 11.5471 11.6213 11.4658 11.8115 11.3314C12.0018 11.197 12.1502 11.0147 12.2408 10.8043L13.5018 7.89742L14.7629 10.8043C14.8535 11.0147 15.0019 11.197 15.1922 11.3314C15.3824 11.4658 15.607 11.5471 15.8417 11.5666L19.0827 11.8379L16.6206 13.9157Z" fill="white"/>
</svg>
