<svg width="26" height="26" viewBox="0 0 26 26" fill="none" xmlns="http://www.w3.org/2000/svg">
<circle cx="13" cy="13" r="13" fill="#EC2B2B"/>
<path d="M8.96141 10.216V16H8.40941C8.32407 16 8.25207 15.9867 8.19341 15.96C8.13741 15.9307 8.08274 15.8827 8.02941 15.816L5.00941 11.96C5.02541 12.136 5.03341 12.2987 5.03341 12.448V16H4.08541V10.216H4.64941C4.69474 10.216 4.73341 10.2187 4.76541 10.224C4.80007 10.2267 4.82941 10.2347 4.85341 10.248C4.88007 10.2587 4.90541 10.276 4.92941 10.3C4.95341 10.3213 4.98007 10.3507 5.00941 10.388L8.04141 14.26C8.03341 14.1667 8.02674 14.0747 8.02141 13.984C8.01607 13.8933 8.01341 13.8093 8.01341 13.732V10.216H8.96141ZM11.3295 11.072V12.676H13.3535V13.504H11.3295V15.14H13.8975V16H10.2495V10.216H13.8975V11.072H11.3295ZM22.547 10.216L20.751 16H19.779L18.515 12.048C18.4804 11.952 18.4484 11.8347 18.419 11.696C18.403 11.7627 18.387 11.8253 18.371 11.884C18.355 11.9427 18.3377 11.9973 18.319 12.048L17.043 16H16.067L14.275 10.216H15.175C15.2684 10.216 15.3457 10.2387 15.407 10.284C15.471 10.3267 15.5137 10.3853 15.535 10.46L16.519 13.92C16.5404 14.0053 16.5604 14.0987 16.579 14.2C16.6004 14.2987 16.6217 14.4027 16.643 14.512C16.6644 14.4 16.687 14.2947 16.711 14.196C16.7377 14.0973 16.7657 14.0053 16.795 13.92L17.931 10.46C17.9524 10.3987 17.9937 10.3427 18.055 10.292C18.119 10.2413 18.1964 10.216 18.287 10.216H18.603C18.6964 10.216 18.7724 10.2387 18.831 10.284C18.8897 10.3293 18.9337 10.388 18.963 10.46L20.095 13.92C20.151 14.0853 20.2017 14.276 20.247 14.492C20.2817 14.2813 20.3204 14.0907 20.363 13.92L21.347 10.46C21.363 10.3933 21.403 10.336 21.467 10.288C21.5337 10.24 21.6124 10.216 21.703 10.216H22.547Z" fill="white"/>
</svg>
