<svg width="56" height="55" viewBox="0 0 56 55" fill="none" xmlns="http://www.w3.org/2000/svg">
<path d="M27.5184 0.0268555C12.3382 0.0268555 0.0322266 12.3328 0.0322266 27.513C0.0322266 32.8047 1.54032 37.7392 4.12023 41.9397C3.96527 41.6874 4.17125 42.0243 4.12023 41.9397C4.12023 41.9397 6.21597 44.726 10.6511 44.3413C14.578 50.7638 20.7036 54.9012 27.6193 54.9265V54.998C42.753 54.9433 55.0046 42.6595 55.0046 27.513C55.0046 12.3328 42.6986 0.0268555 27.5184 0.0268555Z" fill="url(#paint0_linear_19_4676)"/>
<path d="M27.5184 54.9992C42.6986 54.9992 55.0046 42.6932 55.0046 27.513C55.0046 12.3328 42.6986 0.0268555 27.5184 0.0268555C12.3382 0.0268555 0.0322266 12.3328 0.0322266 27.513C0.0322266 42.6932 12.3382 54.9992 27.5184 54.9992Z" fill="url(#paint1_linear_19_4676)"/>
<path d="M27.5184 54.9992C42.6986 54.9992 55.0046 42.6932 55.0046 27.513C55.0046 12.3328 42.6986 0.0268555 27.5184 0.0268555C12.3382 0.0268555 0.0322266 12.3328 0.0322266 27.513C0.0322266 42.6932 12.3382 54.9992 27.5184 54.9992Z" fill="url(#paint2_radial_19_4676)"/>
<path d="M1.65296 18.167C0.520609 21.1769 0.0322266 24.1073 0.0322266 27.5131C0.0322266 42.6933 12.6663 54.8813 27.5184 54.9993C39.3651 55.0933 49.8489 47.2048 53.5672 36.4099L1.65296 18.167Z" fill="url(#paint3_linear_19_4676)"/>
<path d="M45.4968 6.83196C41.1125 1.43265 28.4875 5.42606 16.7118 14.9878C14.2518 16.9852 12.109 19.1113 10.2926 21.2705L27.499 27.1341L4.18994 42.0605C8.42796 47.1781 21.1752 43.5117 32.8432 34.0376C44.6191 24.476 49.8811 12.2317 45.4968 6.83196Z" fill="url(#paint4_linear_19_4676)" fill-opacity="0.7"/>
<path d="M27.4802 54.9037V27.2994L48.1421 34.4071C48.1421 34.4071 50.4875 21.8447 46.9851 13.7452C41.6956 1.5134 32.2738 -0.249741 27.4802 0.0257505C19.6563 -0.194643 4.65084 6.36107 6.15719 27.2994C7.81014 50.2754 21.0888 55.0139 27.4802 54.9037Z" fill="url(#paint5_linear_19_4676)" fill-opacity="0.5"/>
<g style="mix-blend-mode:screen">
<path d="M44.7042 27.7745C44.7042 42.8441 27.7329 40.4402 27.7329 40.4402C27.7329 40.4402 10.7617 42.8441 10.7617 27.7745C10.7617 12.705 18.36 0.0888672 27.7329 0.0888672C37.1059 0.0887872 44.7042 12.705 44.7042 27.7745Z" fill="url(#paint6_linear_19_4676)" fill-opacity="0.5"/>
</g>
<path opacity="0.8" d="M45.577 6.83196C49.9613 12.2316 44.7594 24.6162 32.9836 34.1778C21.2077 43.7396 7.69173 47.1106 4.12012 41.9396C0.487024 36.6798 5.01602 24.5494 16.792 14.9878C28.5676 5.42606 41.1927 1.43265 45.577 6.83196Z" fill="url(#paint7_linear_19_4676)"/>
<g style="mix-blend-mode:screen" opacity="0.8">
<path d="M45.577 6.83196C49.9613 12.2316 44.7594 24.6162 32.9836 34.1778C21.2077 43.7396 7.69173 47.1106 4.12012 41.9396C0.487024 36.6798 5.01602 24.5494 16.792 14.9878C28.5676 5.42606 41.1927 1.43265 45.577 6.83196Z" fill="url(#paint8_linear_19_4676)" fill-opacity="0.3"/>
</g>
<path d="M45.1461 6.35742C45.2975 6.50671 45.4411 6.6648 45.577 6.83192C49.9613 12.2316 44.3996 24.6162 32.6238 34.1778C20.8838 43.7104 8.10833 47.0714 4.12012 41.9395C9.01071 49.5355 17.8925 54.9989 27.5983 54.9989C42.7784 54.9989 55.0844 42.693 55.0844 27.5128C55.0844 19.0041 51.2176 11.3991 45.1461 6.35742Z" fill="url(#paint9_linear_19_4676)"/>
<g style="mix-blend-mode:multiply">
<path d="M45.0534 18.9883C43.335 22.7209 40.47 26.7531 36.6567 30.5632L50.5457 35.4898C52.972 33.7694 54.5088 31.7606 54.8564 29.6002C54.8869 29.1587 54.9076 28.7145 54.9172 28.2675C54.6677 24.5398 50.8856 21.2201 45.0534 18.9883Z" fill="url(#paint10_radial_19_4676)"/>
</g>
<g style="mix-blend-mode:lighten">
<path d="M22.4463 40.8332C24.1233 40.9911 25.8525 41.0802 27.6193 41.092V37.916C25.8754 39.034 24.1401 40.007 22.4463 40.8332Z" fill="url(#paint11_radial_19_4676)"/>
</g>
<path d="M45.1458 6.35742C45.2972 6.50671 45.4408 6.6648 45.5767 6.83192C49.961 12.2316 44.3993 24.6162 32.6234 34.1778C20.8835 43.7104 7.74819 47.3245 3.96484 41.6871C9.01424 49.8967 17.8923 54.999 27.598 54.999C42.7782 54.999 55.0841 42.6931 55.0841 27.5129C55.0841 19.0041 51.2173 11.3991 45.1458 6.35742Z" fill="url(#paint12_linear_19_4676)" fill-opacity="0.5"/>
<g style="mix-blend-mode:multiply" opacity="0.9">
<path d="M50.7262 35.3355L27.5391 27.2788V54.9328C27.5391 54.9328 36.432 55.5978 44.6294 49.0358C50.8539 43.1593 50.7262 35.3355 50.7262 35.3355Z" fill="url(#paint13_linear_19_4676)" fill-opacity="0.5"/>
</g>
<g style="mix-blend-mode:multiply" opacity="0.9">
<path d="M50.7262 35.3355L27.5391 27.2788V54.9328C27.5391 54.9328 36.432 55.5978 44.6294 49.0358C50.8539 43.1593 50.7262 35.3355 50.7262 35.3355Z" fill="url(#paint14_radial_19_4676)" fill-opacity="0.7"/>
</g>
<path opacity="0.5" d="M27.5184 54.9992C42.6986 54.9992 55.0046 42.6932 55.0046 27.513C55.0046 12.3328 42.6986 0.0268555 27.5184 0.0268555C12.3382 0.0268555 0.0322266 12.3328 0.0322266 27.513C0.0322266 42.6932 12.3382 54.9992 27.5184 54.9992Z" fill="url(#paint15_radial_19_4676)" fill-opacity="0.7"/>
<path opacity="0.3" d="M0 28.5007C0 21.5455 9.84746 15.9072 27.4657 15.9072C45.084 15.9072 54.5058 22.4231 54.919 28.5007C55.3323 34.5783 43.679 41.432 27.5391 41.0918C11.3993 40.7517 0 35.3938 0 28.5007Z" fill="url(#paint16_linear_19_4676)"/>
<g style="mix-blend-mode:multiply">
<path d="M27.5214 27.3821L27.2734 0.108398C29.0917 0.108398 33.1662 0.348075 36.7366 4.44739C40.3069 8.54671 41.3648 14.7921 41.6954 17.7123L27.5214 27.3821Z" fill="url(#paint17_linear_19_4676)" fill-opacity="0.3"/>
</g>
<path opacity="0.7" d="M27.356 0.108398C40.7035 0.769578 44.7946 10.6046 46.4889 15.0676C47.5219 12.4229 47.1864 7.89798 45.2491 6.38961C39.8357 2.17459 34.505 0.108398 27.356 0.108398Z" fill="url(#paint18_linear_19_4676)"/>
<defs>
<linearGradient id="paint0_linear_19_4676" x1="48.4096" y1="46.4052" x2="4.43016" y2="1.94596" gradientUnits="userSpaceOnUse">
<stop stop-color="#FFD927"/>
<stop offset="1" stop-color="#FBD38B" stop-opacity="0.1"/>
</linearGradient>
<linearGradient id="paint1_linear_19_4676" x1="46.795" y1="46.7897" x2="8.52289" y2="8.51752" gradientUnits="userSpaceOnUse">
<stop stop-color="#FFD927"/>
<stop offset="1" stop-color="#FBD38B" stop-opacity="0.1"/>
</linearGradient>
<radialGradient id="paint2_radial_19_4676" cx="0" cy="0" r="1" gradientUnits="userSpaceOnUse" gradientTransform="translate(32.577 33.1314) rotate(30.1916) scale(40.7053)">
<stop offset="0.723958" stop-color="#FEF0FB" stop-opacity="0"/>
<stop offset="1" stop-color="#FBECFF"/>
</radialGradient>
<linearGradient id="paint3_linear_19_4676" x1="4.43017" y1="15.5397" x2="21.8153" y2="28.875" gradientUnits="userSpaceOnUse">
<stop stop-color="#FFE0C2" stop-opacity="0.5"/>
<stop offset="1" stop-color="#FBD37E" stop-opacity="0.1"/>
</linearGradient>
<linearGradient id="paint4_linear_19_4676" x1="51.613" y1="0.190997" x2="0.0409873" y2="45.9777" gradientUnits="userSpaceOnUse">
<stop stop-color="#FBDA42"/>
<stop offset="1" stop-color="#FFEB8B"/>
</linearGradient>
<linearGradient id="paint5_linear_19_4676" x1="27.4813" y1="0" x2="27.4813" y2="54.9055" gradientUnits="userSpaceOnUse">
<stop stop-color="white"/>
<stop offset="0.5" stop-color="#FFE031" stop-opacity="0.39"/>
<stop offset="1" stop-color="#FFE600" stop-opacity="0.74"/>
</linearGradient>
<linearGradient id="paint6_linear_19_4676" x1="26.7825" y1="-7.42468" x2="27.8107" y2="55.0068" gradientUnits="userSpaceOnUse">
<stop offset="0.0104167" stop-color="#FFCA0F"/>
<stop offset="0.609375" stop-color="#FFB800" stop-opacity="0.53"/>
</linearGradient>
<linearGradient id="paint7_linear_19_4676" x1="0.702405" y1="35.7294" x2="47.1301" y2="12.6608" gradientUnits="userSpaceOnUse">
<stop stop-color="#FFC42C"/>
<stop offset="1" stop-color="#FF8F27" stop-opacity="0.73"/>
</linearGradient>
<linearGradient id="paint8_linear_19_4676" x1="4.66948" y1="44.3661" x2="45.6626" y2="5.97632" gradientUnits="userSpaceOnUse">
<stop stop-color="#FFEF62" stop-opacity="0.97"/>
<stop offset="0.994792" stop-color="#FFA215"/>
</linearGradient>
<linearGradient id="paint9_linear_19_4676" x1="33.5364" y1="36.1697" x2="17.7038" y2="56.6401" gradientUnits="userSpaceOnUse">
<stop offset="0.766065" stop-color="#FFD7A9" stop-opacity="0"/>
<stop offset="1" stop-color="#FA460E"/>
</linearGradient>
<radialGradient id="paint10_radial_19_4676" cx="0" cy="0" r="1" gradientUnits="userSpaceOnUse" gradientTransform="translate(41.1363 25.2225) scale(13.2475 13.2475)">
<stop stop-color="#FF4520" stop-opacity="0.8"/>
<stop offset="0.7849" stop-color="#FB22BA" stop-opacity="0"/>
</radialGradient>
<radialGradient id="paint11_radial_19_4676" cx="0" cy="0" r="1" gradientUnits="userSpaceOnUse" gradientTransform="translate(25.0686 39.6191) scale(6.19579 6.19579)">
<stop offset="0.0376" stop-color="#FF9265" stop-opacity="0.6"/>
<stop offset="1" stop-color="#FBC27E" stop-opacity="0.7"/>
</radialGradient>
<linearGradient id="paint12_linear_19_4676" x1="12.2727" y1="61.1847" x2="70.4548" y2="19.6932" gradientUnits="userSpaceOnUse">
<stop stop-color="#FB5E1A" stop-opacity="0.53"/>
<stop offset="0.953125" stop-color="#F96728" stop-opacity="0.88"/>
</linearGradient>
<linearGradient id="paint13_linear_19_4676" x1="30.7859" y1="33.746" x2="41.1995" y2="44.8207" gradientUnits="userSpaceOnUse">
<stop stop-color="#FB7F0E"/>
<stop offset="1" stop-color="#EC4B06" stop-opacity="0.94"/>
</linearGradient>
<radialGradient id="paint14_radial_19_4676" cx="0" cy="0" r="1" gradientUnits="userSpaceOnUse" gradientTransform="translate(46.2856 35.8373) rotate(127.284) scale(39.2203 39.2203)">
<stop stop-color="#EE5412" stop-opacity="0.94"/>
<stop offset="0.53125" stop-color="#FB7F0E" stop-opacity="0"/>
</radialGradient>
<radialGradient id="paint15_radial_19_4676" cx="0" cy="0" r="1" gradientUnits="userSpaceOnUse" gradientTransform="translate(19.6231 20.6572) rotate(33.0849) scale(37.7928)">
<stop offset="0.869792" stop-color="#FEF0FB" stop-opacity="0"/>
<stop offset="1" stop-color="#FBECFF"/>
</radialGradient>
<linearGradient id="paint16_linear_19_4676" x1="-0.00023204" y1="26.1422" x2="50.6214" y2="26.3075" gradientUnits="userSpaceOnUse">
<stop stop-color="#F29528" stop-opacity="0.46"/>
<stop offset="0.46875" stop-color="#FFEF62" stop-opacity="0.74"/>
<stop offset="1" stop-color="#FB7F0E"/>
</linearGradient>
<linearGradient id="paint17_linear_19_4676" x1="28.1412" y1="0.191046" x2="34.5051" y2="27.2994" gradientUnits="userSpaceOnUse">
<stop stop-color="#F4B71A" stop-opacity="0.85"/>
<stop offset="1" stop-color="#FFD927" stop-opacity="0.6"/>
</linearGradient>
<linearGradient id="paint18_linear_19_4676" x1="19.1584" y1="23.0714" x2="40.7035" y2="2.17457" gradientUnits="userSpaceOnUse">
<stop stop-color="#FFDF36" stop-opacity="0.6"/>
<stop offset="1" stop-color="#FFA927"/>
</linearGradient>
</defs>
</svg>
