<svg width="149" height="41" viewBox="0 0 149 41" fill="none" xmlns="http://www.w3.org/2000/svg">
<path d="M60.3188 14.0257C64.116 14.0257 67.1947 17.0709 67.1947 20.8268C67.1947 24.5827 64.116 27.628 60.3188 27.628C56.5216 27.628 53.4429 24.5827 53.4429 20.8268C53.4429 17.0709 56.5216 14.0257 60.3188 14.0257ZM60.3188 16.484C57.8941 16.484 55.9282 18.4285 55.9282 20.8268C55.9282 23.2251 57.8941 25.1697 60.3188 25.1697C62.7434 25.1697 64.7093 23.2251 64.7093 20.8268C64.7093 18.4266 62.7434 16.484 60.3188 16.484Z" fill="#FAA51A"/>
<path d="M69.2914 26.4523L69.2895 19.1561C69.2895 16.3227 71.6118 14.0257 74.4763 14.0257C77.3408 14.0257 79.6631 16.3227 79.6631 19.1561V26.4523C79.6631 28.0911 77.1777 28.0911 77.1777 26.4523V19.1561C77.1777 17.6803 75.9683 16.484 74.4763 16.484C72.9843 16.484 71.7748 17.6803 71.7748 19.1561L71.7767 26.4523C71.7767 28.0911 69.2914 28.0911 69.2914 26.4523Z" fill="#FAA51A"/>
<path d="M89.3958 27.6824H89.1873C85.3598 27.6824 82.2602 24.6147 82.2602 20.8288C82.2602 17.0466 85.356 13.9639 89.1873 13.9639H89.4375C91.0944 13.9639 91.0944 16.4222 89.4375 16.4222H89.1873C87.1759 16.4222 85.4735 17.7535 84.9294 19.5762H89.6631C91.32 19.5762 91.32 22.0345 89.6631 22.0345H84.9162C85.4451 23.8759 87.1569 25.2241 89.1892 25.2241H89.3977C91.0527 25.2241 91.0527 27.6824 89.3958 27.6824Z" fill="#FAA51A"/>
<path d="M128.976 26.4279L128.974 19.2593C128.974 16.4409 131.281 14.0933 134.161 14.0933H134.625C136.282 14.0933 136.282 16.5516 134.625 16.5516H134.161C132.684 16.5516 131.46 17.7685 131.46 19.2593L131.461 26.4279C131.463 28.0649 128.978 28.0668 128.976 26.4279ZM144.216 22.8389V26.4261C144.216 28.0649 141.731 28.0649 141.731 26.4261V22.8389C139.465 22.2876 137.786 20.2662 137.786 17.8567V15.3233C137.786 13.6845 140.271 13.6845 140.271 15.3233V17.8567C140.271 19.3324 141.48 20.5287 142.972 20.5287C144.464 20.5287 145.674 19.3324 145.674 17.8567C145.674 17.1441 145.672 15.3233 145.672 15.3233C145.67 13.6845 148.155 13.6826 148.157 15.3215C148.157 15.3215 148.159 17.1441 148.159 17.8567C148.159 20.2662 146.48 22.2895 144.216 22.8389ZM122.009 13.9751H124.584C126.24 13.9751 126.24 16.4334 124.584 16.4334H122.009V22.5295C122.009 24.0165 123.226 25.226 124.709 25.226H125.42C127.077 25.226 127.077 27.6843 125.42 27.6843H124.709C121.833 27.6843 119.524 25.3535 119.524 22.5314V12.34C119.524 10.7011 122.009 10.7011 122.009 12.34V13.9751ZM106.437 26.4523L106.436 19.1561C106.436 16.3228 108.758 14.0257 111.622 14.0257C114.487 14.0257 116.809 16.3228 116.809 19.1561V26.4523C116.809 28.0912 114.324 28.0912 114.324 26.4523V19.1561C114.324 17.6804 113.114 16.4841 111.622 16.4841C110.13 16.4841 108.921 17.6804 108.921 19.1561L108.923 26.4523C108.923 28.0912 106.437 28.0912 106.437 26.4523ZM101.501 27.6824H101.292C97.4648 27.6824 94.3672 24.6147 94.3672 20.8288C94.3672 17.0466 97.463 13.9639 101.292 13.9639H101.543C103.2 13.9639 103.2 16.4222 101.543 16.4222H101.292C99.281 16.4222 97.5786 17.7535 97.0345 19.5762H101.768C103.425 19.5762 103.425 22.0345 101.768 22.0345H97.0212C97.5502 23.8759 99.262 25.2241 101.294 25.2241H101.503C103.158 25.2241 103.158 27.6824 101.501 27.6824Z" fill="#F15B22"/>
<path d="M25.4598 0.538086C16.2919 2.65512 9.46533 10.7895 9.46533 20.5009C9.46533 30.2122 16.2919 38.3466 25.4579 40.4636C34.6239 38.3466 41.4505 30.2122 41.4505 20.5009C41.4524 10.7895 34.6258 2.65512 25.4598 0.538086ZM28.1158 28.9052C27.2949 29.6122 26.4001 30.1785 25.4598 30.6097C25.4598 30.6097 25.4598 30.6154 25.4598 30.6097C21.6038 28.8415 18.9308 24.9787 18.9308 20.499C18.9308 16.0193 21.6038 12.1565 25.4598 10.3882C26.8608 11.0276 28.1499 11.9652 29.2267 13.1915C33.3063 17.8344 32.8096 24.8699 28.1158 28.9052Z" fill="#F15B22"/>
<path d="M20.7263 0C22.3547 0 23.9396 0.185639 25.4581 0.536291C16.2921 2.6552 9.4655 10.7896 9.4655 20.5009C9.4655 30.2123 16.2921 38.3467 25.4581 40.4637C23.9377 40.8144 22.3528 41 20.7263 41C9.27971 41 0 31.8231 0 20.5009C0.00189575 9.17882 9.27971 0 20.7263 0Z" fill="url(#paint0_linear_226_417)"/>
<path d="M13.3404 12.0947C16.7945 9.12451 21.5585 8.60697 25.46 10.3902C21.604 12.1585 18.931 16.0213 18.931 20.501C18.931 24.9807 21.604 28.8435 25.46 30.6118C21.0258 32.6444 15.5963 31.6394 12.2295 27.8084C8.14983 23.1656 8.64651 16.13 13.3404 12.0947Z" fill="url(#paint1_linear_226_417)"/>
<path d="M38.6904 13.1933C42.7701 17.8362 42.2734 24.8698 37.5795 28.907C34.1255 31.8773 29.3614 32.3948 25.46 30.6115C26.4003 30.1802 27.295 29.614 28.1159 28.907C32.8098 24.8717 33.3065 17.8362 29.2268 13.1933C28.15 11.967 26.8609 11.0313 25.46 10.39C29.8922 8.35733 35.3236 9.36241 38.6904 13.1933Z" fill="url(#paint2_linear_226_417)"/>
<path d="M10.0095 15.8208L30.9519 15.8227C32.349 18.8042 32.3263 22.2394 30.9519 25.1796L10.0095 25.1815C9.65496 23.6777 9.46729 22.1119 9.46729 20.5012C9.46729 18.8904 9.65307 17.3228 10.0095 15.8208Z" fill="#F15B22"/>
<path fill-rule="evenodd" clip-rule="evenodd" d="M99.4056 35.1216V40.8746H98.5431V38.2831H95.508V40.8746H94.6416V35.1216H95.508V37.6625H98.5431V35.1216H99.4056Z" fill="black" fill-opacity="0.8"/>
<path fill-rule="evenodd" clip-rule="evenodd" d="M103.506 38.3863C103.506 38.2306 103.483 38.0881 103.44 37.9569C103.394 37.8256 103.33 37.7131 103.243 37.6156C103.155 37.5199 103.051 37.4449 102.926 37.3906C102.801 37.3381 102.659 37.3099 102.498 37.3099C102.166 37.3099 101.904 37.4056 101.713 37.5949C101.523 37.7843 101.402 38.0469 101.351 38.3844H103.506V38.3863ZM104.158 40.2952C104.062 40.4077 103.95 40.5033 103.823 40.5858C103.696 40.6664 103.561 40.7339 103.417 40.7846C103.275 40.8352 103.125 40.8727 102.973 40.8971C102.82 40.9215 102.67 40.9327 102.522 40.9327C102.238 40.9327 101.976 40.8858 101.734 40.7902C101.493 40.6946 101.282 40.5558 101.106 40.3739C100.93 40.1901 100.791 39.9633 100.693 39.6932C100.594 39.4213 100.545 39.1101 100.545 38.7575C100.545 38.4744 100.59 38.21 100.68 37.9662C100.769 37.7225 100.896 37.5087 101.063 37.3268C101.229 37.1449 101.432 37.0024 101.673 36.8974C101.914 36.7924 102.183 36.7418 102.482 36.7418C102.735 36.7418 102.966 36.783 103.178 36.8636C103.391 36.9443 103.573 37.0643 103.728 37.218C103.882 37.3737 104.003 37.5649 104.09 37.7918C104.177 38.0187 104.223 38.2775 104.223 38.57C104.223 38.69 104.209 38.7707 104.183 38.8119C104.156 38.8532 104.105 38.8738 104.033 38.8738H101.336C101.343 39.1176 101.379 39.3295 101.44 39.5095C101.502 39.6895 101.588 39.8395 101.698 39.9595C101.808 40.0795 101.936 40.1695 102.088 40.2276C102.24 40.2858 102.409 40.3158 102.594 40.3158C102.771 40.3158 102.922 40.2952 103.049 40.2558C103.178 40.2164 103.288 40.1714 103.381 40.1264C103.474 40.0795 103.554 40.0364 103.616 39.997C103.679 39.9576 103.736 39.937 103.785 39.937C103.849 39.937 103.9 39.9614 103.935 40.0083L104.158 40.2952Z" fill="black" fill-opacity="0.8"/>
<path fill-rule="evenodd" clip-rule="evenodd" d="M107.536 39.0688C107.214 39.0801 106.943 39.1044 106.718 39.1438C106.494 39.1832 106.312 39.2338 106.172 39.2976C106.031 39.3613 105.929 39.4363 105.868 39.5245C105.806 39.6107 105.775 39.7082 105.775 39.8151C105.775 39.9164 105.792 40.0045 105.827 40.0776C105.861 40.1508 105.906 40.2108 105.965 40.2577C106.024 40.3045 106.092 40.3383 106.17 40.3589C106.247 40.3795 106.333 40.3908 106.426 40.3908C106.547 40.3908 106.659 40.3795 106.759 40.3552C106.86 40.3308 106.956 40.297 107.046 40.2539C107.135 40.2089 107.22 40.1564 107.301 40.0908C107.383 40.027 107.463 39.9539 107.54 39.8695V39.0688H107.536ZM105.22 37.3737C105.449 37.158 105.698 36.9949 105.967 36.888C106.236 36.7811 106.53 36.7286 106.852 36.7286C107.087 36.7286 107.296 36.7661 107.476 36.843C107.658 36.9199 107.809 37.0249 107.933 37.1618C108.058 37.2987 108.151 37.4618 108.215 37.6512C108.278 37.8406 108.31 38.0506 108.31 38.2794V40.8765H107.957C107.88 40.8765 107.819 40.8633 107.779 40.839C107.739 40.8146 107.707 40.7658 107.682 40.6964L107.597 40.3402C107.493 40.4358 107.389 40.5221 107.286 40.5952C107.184 40.6683 107.076 40.7321 106.964 40.7827C106.852 40.8352 106.733 40.8746 106.606 40.9008C106.479 40.9271 106.338 40.9402 106.185 40.9402C106.024 40.9402 105.87 40.9177 105.73 40.8746C105.588 40.8315 105.464 40.764 105.358 40.6721C105.252 40.5821 105.171 40.4677 105.11 40.3308C105.049 40.1939 105.019 40.0364 105.019 39.8545C105.019 39.6951 105.063 39.5395 105.15 39.3913C105.237 39.2432 105.381 39.1101 105.58 38.9919C105.779 38.8738 106.037 38.7782 106.357 38.7032C106.678 38.6282 107.07 38.585 107.538 38.5757V38.2794C107.538 37.9719 107.472 37.7431 107.339 37.5912C107.207 37.4393 107.013 37.3624 106.755 37.3624C106.583 37.3624 106.437 37.3831 106.319 37.4262C106.202 37.4693 106.101 37.5162 106.016 37.5687C105.931 37.6212 105.857 37.6681 105.794 37.7112C105.73 37.7543 105.665 37.775 105.597 37.775C105.542 37.775 105.497 37.76 105.457 37.7318C105.417 37.7018 105.387 37.6681 105.362 37.6268L105.22 37.3737Z" fill="black" fill-opacity="0.8"/>
<path fill-rule="evenodd" clip-rule="evenodd" d="M112.278 37.79C112.149 37.6212 112.009 37.5049 111.859 37.4374C111.709 37.3699 111.54 37.3381 111.355 37.3381C110.992 37.3381 110.712 37.4674 110.515 37.7243C110.316 37.9812 110.217 38.3581 110.217 38.8513C110.217 39.1101 110.24 39.3313 110.283 39.5151C110.329 39.6989 110.393 39.847 110.479 39.9633C110.564 40.0795 110.668 40.1658 110.793 40.2201C110.918 40.2745 111.059 40.3027 111.214 40.3027C111.444 40.3027 111.643 40.252 111.809 40.1508C111.976 40.0495 112.134 39.907 112.28 39.7214V37.79H112.278ZM113.072 40.8746H112.594C112.484 40.8746 112.414 40.8221 112.388 40.7189L112.319 40.2501C112.143 40.4564 111.944 40.6214 111.722 40.7452C111.5 40.8689 111.243 40.9308 110.951 40.9308C110.716 40.9308 110.503 40.8858 110.312 40.7939C110.122 40.7039 109.959 40.5708 109.823 40.3945C109.688 40.2201 109.584 40.0026 109.512 39.7439C109.44 39.4851 109.402 39.1869 109.402 38.8494C109.402 38.5475 109.442 38.2662 109.523 38.0075C109.605 37.7487 109.722 37.5237 109.876 37.3343C110.029 37.1449 110.215 36.9949 110.435 36.888C110.653 36.7793 110.901 36.7249 111.176 36.7249C111.425 36.7249 111.637 36.7643 111.809 36.8449C111.984 36.9255 112.139 37.038 112.278 37.1862V34.9585H113.072V40.8746Z" fill="black" fill-opacity="0.8"/>
<path d="M115.245 34.9604H114.45V40.8746H115.245V34.9604Z" fill="black" fill-opacity="0.8"/>
<path fill-rule="evenodd" clip-rule="evenodd" d="M119.355 38.3863C119.355 38.2306 119.332 38.0881 119.288 37.9569C119.243 37.8256 119.178 37.7131 119.091 37.6156C119.004 37.5199 118.9 37.4449 118.775 37.3906C118.65 37.3381 118.507 37.3099 118.344 37.3099C118.013 37.3099 117.751 37.4056 117.561 37.5949C117.37 37.7843 117.25 38.0469 117.199 38.3844H119.355V38.3863ZM120.007 40.2952C119.91 40.4077 119.796 40.5033 119.671 40.5858C119.544 40.6664 119.41 40.7339 119.266 40.7846C119.123 40.8352 118.974 40.8727 118.822 40.8971C118.67 40.9215 118.519 40.9327 118.371 40.9327C118.086 40.9327 117.825 40.8858 117.582 40.7902C117.34 40.6946 117.131 40.5558 116.955 40.3739C116.778 40.1901 116.64 39.9633 116.541 39.6932C116.443 39.4213 116.394 39.1101 116.394 38.7575C116.394 38.4744 116.437 38.21 116.528 37.9662C116.617 37.7225 116.744 37.5087 116.911 37.3268C117.078 37.1449 117.281 37.0024 117.522 36.8974C117.762 36.7924 118.031 36.7418 118.331 36.7418C118.581 36.7418 118.814 36.783 119.025 36.8636C119.237 36.9443 119.419 37.0643 119.575 37.218C119.728 37.3737 119.85 37.5649 119.937 37.7918C120.024 38.0187 120.069 38.2775 120.069 38.57C120.069 38.69 120.056 38.7707 120.03 38.8119C120.003 38.8532 119.954 38.8738 119.88 38.8738H117.182C117.19 39.1176 117.226 39.3295 117.286 39.5095C117.349 39.6895 117.434 39.8395 117.544 39.9595C117.654 40.0795 117.783 40.1695 117.935 40.2276C118.086 40.2858 118.255 40.3158 118.441 40.3158C118.617 40.3158 118.769 40.2952 118.896 40.2558C119.025 40.2164 119.135 40.1714 119.228 40.1264C119.321 40.0795 119.398 40.0364 119.463 39.997C119.525 39.9576 119.582 39.937 119.632 39.937C119.696 39.937 119.747 39.9614 119.781 40.0083L120.007 40.2952Z" fill="black" fill-opacity="0.8"/>
<path fill-rule="evenodd" clip-rule="evenodd" d="M123.599 37.5049C123.577 37.5406 123.554 37.5649 123.531 37.5799C123.506 37.5949 123.476 37.6024 123.438 37.6024C123.395 37.6024 123.347 37.5874 123.294 37.5574C123.241 37.5274 123.178 37.4956 123.103 37.4618C123.029 37.4281 122.941 37.3943 122.841 37.3662C122.741 37.3362 122.623 37.323 122.485 37.323C122.371 37.323 122.269 37.3362 122.176 37.3643C122.083 37.3924 122.003 37.4318 121.939 37.4806C121.874 37.5293 121.823 37.5893 121.789 37.6568C121.753 37.7243 121.736 37.7975 121.736 37.8743C121.736 37.9756 121.766 38.06 121.827 38.1275C121.887 38.195 121.967 38.2512 122.066 38.3C122.164 38.3488 122.276 38.3919 122.403 38.4294C122.528 38.4688 122.657 38.5081 122.788 38.5513C122.919 38.5944 123.048 38.6432 123.173 38.6975C123.298 38.7519 123.41 38.8213 123.51 38.9019C123.609 38.9826 123.688 39.0819 123.749 39.1963C123.81 39.3107 123.84 39.4513 123.84 39.6163C123.84 39.8057 123.806 39.982 123.738 40.1433C123.669 40.3045 123.567 40.4452 123.434 40.5614C123.3 40.6796 123.135 40.7714 122.938 40.8371C122.741 40.9046 122.515 40.9364 122.261 40.9364C121.977 40.9364 121.715 40.8896 121.476 40.7958C121.235 40.7021 121.034 40.5839 120.871 40.4395L121.057 40.1395C121.078 40.102 121.106 40.0739 121.139 40.0533C121.171 40.0326 121.214 40.0233 121.269 40.0233C121.321 40.0233 121.374 40.042 121.427 40.0795C121.482 40.117 121.546 40.1583 121.622 40.2014C121.698 40.2464 121.789 40.2858 121.897 40.3214C122.005 40.357 122.14 40.3758 122.303 40.3758C122.437 40.3758 122.555 40.3589 122.655 40.3252C122.756 40.2914 122.837 40.2464 122.904 40.1883C122.97 40.1301 123.019 40.0645 123.051 39.9895C123.084 39.9145 123.101 39.8357 123.101 39.7532C123.101 39.6464 123.07 39.5582 123.01 39.487C122.949 39.4157 122.869 39.3557 122.771 39.3051C122.672 39.2544 122.56 39.2094 122.433 39.1719C122.306 39.1344 122.178 39.0951 122.045 39.0519C121.912 39.0088 121.783 38.96 121.656 38.9038C121.529 38.8475 121.417 38.7763 121.317 38.6919C121.218 38.6056 121.139 38.5025 121.078 38.3788C121.017 38.255 120.987 38.1069 120.987 37.9306C120.987 37.7731 121.019 37.6212 121.086 37.4787C121.152 37.3343 121.247 37.2068 121.374 37.098C121.499 36.9893 121.654 36.9011 121.84 36.8355C122.024 36.7699 122.236 36.738 122.473 36.738C122.746 36.738 122.993 36.7811 123.213 36.8655C123.432 36.9518 123.62 37.068 123.778 37.218L123.599 37.5049Z" fill="black" fill-opacity="0.8"/>
<path fill-rule="evenodd" clip-rule="evenodd" d="M127.387 37.5049C127.366 37.5406 127.343 37.5649 127.319 37.5799C127.294 37.5949 127.264 37.6024 127.226 37.6024C127.182 37.6024 127.135 37.5874 127.082 37.5574C127.029 37.5274 126.966 37.4956 126.892 37.4618C126.818 37.4281 126.731 37.3943 126.631 37.3662C126.53 37.3362 126.413 37.323 126.274 37.323C126.16 37.323 126.058 37.3362 125.965 37.3643C125.872 37.3924 125.793 37.4318 125.728 37.4806C125.664 37.5293 125.613 37.5893 125.578 37.6568C125.544 37.7243 125.525 37.7975 125.525 37.8743C125.525 37.9756 125.556 38.06 125.616 38.1275C125.677 38.195 125.757 38.2512 125.855 38.3C125.954 38.3488 126.066 38.3919 126.191 38.4294C126.316 38.4688 126.445 38.5081 126.576 38.5513C126.706 38.5944 126.835 38.6432 126.96 38.6975C127.086 38.7519 127.197 38.8213 127.296 38.9019C127.395 38.9826 127.474 39.0819 127.535 39.1963C127.595 39.3107 127.626 39.4513 127.626 39.6163C127.626 39.8057 127.592 39.982 127.522 40.1433C127.453 40.3045 127.351 40.4452 127.218 40.5614C127.084 40.6796 126.919 40.7714 126.722 40.8371C126.524 40.9046 126.299 40.9364 126.045 40.9364C125.76 40.9364 125.499 40.8896 125.258 40.7958C125.017 40.7021 124.816 40.5839 124.655 40.4395L124.841 40.1395C124.862 40.102 124.89 40.0739 124.922 40.0533C124.955 40.0326 124.998 40.0233 125.051 40.0233C125.103 40.0233 125.156 40.042 125.209 40.0795C125.264 40.117 125.328 40.1583 125.404 40.2014C125.48 40.2464 125.571 40.2858 125.679 40.3214C125.787 40.357 125.922 40.3758 126.085 40.3758C126.219 40.3758 126.337 40.3589 126.437 40.3252C126.538 40.2914 126.619 40.2464 126.686 40.1883C126.752 40.1301 126.801 40.0645 126.833 39.9895C126.866 39.9145 126.883 39.8357 126.883 39.7532C126.883 39.6464 126.852 39.5582 126.792 39.487C126.731 39.4157 126.651 39.3557 126.553 39.3051C126.454 39.2544 126.34 39.2094 126.213 39.1719C126.086 39.1344 125.958 39.0951 125.825 39.0519C125.692 39.0088 125.563 38.96 125.436 38.9038C125.309 38.8475 125.197 38.7763 125.099 38.6919C125 38.6056 124.921 38.5025 124.86 38.3788C124.799 38.255 124.769 38.1069 124.769 37.9306C124.769 37.7731 124.801 37.6212 124.867 37.4787C124.934 37.3343 125.031 37.2068 125.156 37.098C125.281 36.9893 125.436 36.9011 125.622 36.8355C125.808 36.7699 126.018 36.738 126.257 36.738C126.53 36.738 126.777 36.7811 126.996 36.8655C127.216 36.9518 127.406 37.068 127.561 37.218L127.387 37.5049Z" fill="black" fill-opacity="0.8"/>
<path fill-rule="evenodd" clip-rule="evenodd" d="M135.277 39.6407C135.326 39.6407 135.368 39.6595 135.402 39.697L135.741 40.0664C135.505 40.3439 135.214 40.5596 134.873 40.7114C134.532 40.8633 134.121 40.9402 133.639 40.9402C133.218 40.9402 132.837 40.869 132.494 40.7246C132.153 40.5802 131.861 40.3795 131.618 40.1189C131.376 39.8601 131.19 39.5507 131.057 39.1888C130.924 38.8288 130.858 38.4313 130.858 37.9981C130.858 37.565 130.928 37.1693 131.067 36.8074C131.205 36.4474 131.4 36.1361 131.652 35.8773C131.903 35.6186 132.204 35.416 132.555 35.2717C132.904 35.1273 133.29 35.056 133.715 35.056C134.128 35.056 134.496 35.1235 134.816 35.2567C135.139 35.3898 135.417 35.5679 135.654 35.7892L135.37 36.1867C135.351 36.2167 135.328 36.2392 135.3 36.258C135.271 36.2767 135.233 36.2861 135.188 36.2861C135.137 36.2861 135.076 36.2599 135.008 36.2092C134.94 36.1586 134.849 36.1023 134.737 36.0386C134.625 35.9767 134.486 35.9186 134.322 35.868C134.157 35.8173 133.952 35.7911 133.705 35.7911C133.417 35.7911 133.152 35.8417 132.911 35.9411C132.67 36.0405 132.464 36.1849 132.289 36.3742C132.115 36.5618 131.98 36.7943 131.884 37.068C131.787 37.3418 131.74 37.6512 131.74 37.9962C131.74 38.3469 131.789 38.6582 131.889 38.9301C131.99 39.202 132.126 39.4345 132.303 39.6239C132.479 39.8133 132.686 39.9576 132.922 40.057C133.159 40.1564 133.417 40.2052 133.692 40.2052C133.859 40.2052 134.011 40.1958 134.143 40.1752C134.278 40.1545 134.399 40.1245 134.511 40.0851C134.623 40.0458 134.729 39.9933 134.83 39.9314C134.93 39.8695 135.029 39.7926 135.125 39.7045C135.146 39.6857 135.169 39.6707 135.194 39.6576C135.224 39.6464 135.25 39.6407 135.277 39.6407Z" fill="black" fill-opacity="0.8"/>
<path fill-rule="evenodd" clip-rule="evenodd" d="M142.997 35.1216V40.8746H142.244V36.7793C142.244 36.7174 142.246 36.6518 142.25 36.5824C142.254 36.513 142.259 36.4417 142.263 36.3705L140.327 39.8845C140.259 40.0158 140.157 40.0814 140.017 40.0814H139.895C139.755 40.0814 139.653 40.0158 139.588 39.8845L137.615 36.3592C137.63 36.5092 137.639 36.6499 137.639 36.7793V40.8746H136.881V35.1216H137.522C137.598 35.1216 137.656 35.1291 137.698 35.1441C137.74 35.1591 137.78 35.2004 137.817 35.266L139.763 38.7125C139.8 38.7819 139.835 38.855 139.867 38.9338C139.899 39.0107 139.931 39.0894 139.96 39.1663C140.017 39.0088 140.083 38.8569 140.159 38.7088L142.064 35.266C142.1 35.1985 142.138 35.1591 142.18 35.1441C142.221 35.1291 142.28 35.1216 142.356 35.1216H142.997Z" fill="black" fill-opacity="0.8"/>
<path fill-rule="evenodd" clip-rule="evenodd" d="M147.698 36.0592C147.671 36.1042 147.643 36.138 147.613 36.1586C147.582 36.1792 147.544 36.1905 147.499 36.1905C147.45 36.1905 147.395 36.168 147.332 36.1248C147.27 36.0817 147.192 36.0311 147.099 35.9767C147.006 35.9223 146.894 35.8717 146.765 35.8286C146.636 35.7836 146.481 35.7629 146.299 35.7629C146.128 35.7629 145.979 35.7854 145.852 35.8286C145.723 35.8717 145.617 35.9336 145.529 36.0086C145.442 36.0855 145.378 36.1736 145.332 36.2767C145.289 36.3799 145.266 36.4905 145.266 36.6105C145.266 36.7661 145.306 36.8936 145.385 36.9949C145.465 37.0962 145.569 37.1824 145.7 37.2555C145.829 37.3268 145.977 37.3906 146.142 37.4431C146.307 37.4974 146.475 37.5518 146.648 37.61C146.82 37.6681 146.989 37.7337 147.154 37.8087C147.319 37.8837 147.465 37.9775 147.596 38.0919C147.725 38.2062 147.831 38.345 147.91 38.5081C147.99 38.6732 148.03 38.8738 148.03 39.1119C148.03 39.3651 147.986 39.6032 147.897 39.8245C147.81 40.0458 147.683 40.2408 147.514 40.4058C147.347 40.5708 147.141 40.7021 146.896 40.7958C146.652 40.8914 146.375 40.9383 146.064 40.9383C145.878 40.9383 145.696 40.9196 145.522 40.8839C145.345 40.8483 145.18 40.7977 145.023 40.7321C144.866 40.6664 144.72 40.5877 144.583 40.4958C144.447 40.4039 144.325 40.3008 144.217 40.1845L144.464 39.7757C144.489 39.7439 144.517 39.7176 144.551 39.6951C144.585 39.6745 144.623 39.6632 144.667 39.6632C144.724 39.6632 144.788 39.6932 144.864 39.7514C144.938 39.8095 145.031 39.8751 145.139 39.9464C145.249 40.0176 145.38 40.0814 145.531 40.1414C145.683 40.1995 145.869 40.2295 146.089 40.2295C146.267 40.2295 146.426 40.207 146.566 40.1601C146.707 40.1133 146.826 40.0476 146.921 39.9595C147.017 39.8732 147.089 39.7682 147.141 39.6445C147.192 39.5207 147.218 39.3857 147.218 39.2357C147.218 39.0669 147.179 38.9301 147.101 38.8232C147.023 38.7163 146.919 38.6263 146.79 38.555C146.661 38.4838 146.513 38.4219 146.348 38.3713C146.183 38.3206 146.015 38.2681 145.842 38.2137C145.67 38.1594 145.501 38.0956 145.336 38.0244C145.171 37.9531 145.023 37.8575 144.894 37.7412C144.765 37.625 144.661 37.4787 144.583 37.3043C144.506 37.1299 144.466 36.9143 144.466 36.6574C144.466 36.4511 144.506 36.2523 144.587 36.0611C144.669 35.8679 144.786 35.6992 144.942 35.551C145.097 35.4029 145.289 35.2848 145.514 35.1948C145.742 35.1048 145.999 35.0598 146.291 35.0598C146.617 35.0598 146.919 35.1104 147.194 35.2135C147.469 35.3167 147.706 35.4648 147.908 35.6561L147.698 36.0592Z" fill="black" fill-opacity="0.8"/>
<defs>
<linearGradient id="paint0_linear_226_417" x1="-7.30714" y1="20.5004" x2="18.1509" y2="20.5004" gradientUnits="userSpaceOnUse">
<stop offset="0.2239" stop-color="#FFDF00"/>
<stop offset="0.5849" stop-color="#FCAF17"/>
<stop offset="1" stop-color="#F47920"/>
</linearGradient>
<linearGradient id="paint1_linear_226_417" x1="9.46726" y1="20.5006" x2="25.8401" y2="20.5006" gradientUnits="userSpaceOnUse">
<stop offset="0.1532" stop-color="#F15B22"/>
<stop offset="0.5208" stop-color="#F47920"/>
<stop offset="0.7567" stop-color="#F8971D"/>
<stop offset="0.9278" stop-color="#FCAF17"/>
</linearGradient>
<linearGradient id="paint2_linear_226_417" x1="30.762" y1="20.4892" x2="56.0004" y2="19.9856" gradientUnits="userSpaceOnUse">
<stop offset="0.00481683" stop-color="#FCAF17"/>
<stop offset="0.4218" stop-color="#F47920"/>
</linearGradient>
</defs>
</svg>
