<svg width="26" height="26" viewBox="0 0 26 26" fill="none" xmlns="http://www.w3.org/2000/svg">
<circle cx="13" cy="13" r="13" fill="#F5B900"/>
<path d="M9.25 12.125C11.0462 12.125 12.5 10.7551 12.5 9.0625C12.5 7.36992 11.0462 6 9.25 6C7.45379 6 6 7.36992 6 9.0625C6 10.7551 7.45379 12.125 9.25 12.125ZM9.25 7.75C10.019 7.75 10.6429 8.33789 10.6429 9.0625C10.6429 9.78711 10.019 10.375 9.25 10.375C8.48103 10.375 7.85714 9.78711 7.85714 9.0625C7.85714 8.33789 8.48103 7.75 9.25 7.75ZM15.75 13.875C13.9538 13.875 12.5 15.2449 12.5 16.9375C12.5 18.6301 13.9538 20 15.75 20C17.5462 20 19 18.6301 19 16.9375C19 15.2449 17.5462 13.875 15.75 13.875ZM15.75 18.25C14.981 18.25 14.3571 17.6621 14.3571 16.9375C14.3571 16.2129 14.981 15.625 15.75 15.625C16.519 15.625 17.1429 16.2129 17.1429 16.9375C17.1429 17.6621 16.519 18.25 15.75 18.25ZM17.3837 6.00547L18.3007 6.00273C18.8636 6 19.1973 6.59883 18.8723 7.03633L8.24598 19.7156C8.18191 19.8017 8.09678 19.872 7.99778 19.9206C7.89878 19.9691 7.78883 19.9945 7.67723 19.9945L6.70804 19.9973C6.14219 19.9973 5.81138 19.3984 6.13638 18.9637L16.815 6.28437C16.9455 6.10937 17.1574 6.00547 17.3837 6.00547Z" fill="white"/>
</svg>
