<svg width="143" height="143" viewBox="0 0 143 143" fill="none" xmlns="http://www.w3.org/2000/svg">
<path d="M87.8294 2.80176C56.2031 10.1049 32.6533 38.166 32.6533 71.6673C32.6533 105.169 56.2031 133.23 87.8229 140.533C119.443 133.23 142.992 105.169 142.992 71.6673C142.999 38.166 119.449 10.1049 87.8294 2.80176ZM96.9916 100.66C94.1599 103.099 91.0731 105.052 87.8294 106.54C87.8294 106.54 87.8294 106.559 87.8294 106.54C74.5275 100.44 65.3064 87.1145 65.3064 71.6608C65.3064 56.2071 74.5275 42.8817 87.8294 36.7817C92.6623 38.9875 97.1094 42.2219 100.824 46.4524C114.898 62.4688 113.184 86.7393 96.9916 100.66Z" fill="#F15B22"/>
<path d="M71.4994 0.945312C77.117 0.945312 82.5843 1.58571 87.8227 2.79535C56.2028 10.105 32.6531 38.1661 32.6531 71.6673C32.6531 105.169 56.2028 133.23 87.8227 140.533C82.5778 141.743 77.1105 142.383 71.4994 142.383C32.0122 142.383 0 110.725 0 71.6673C0.00653978 32.6095 32.0122 0.945312 71.4994 0.945312Z" fill="url(#paint0_linear_226_471)"/>
<path d="M46.0203 42.6683C57.9357 32.4219 74.3702 30.6365 87.8291 36.7882C74.5271 42.8882 65.3061 56.2137 65.3061 71.6673C65.3061 87.121 74.5271 100.446 87.8291 106.546C72.5325 113.558 53.8026 110.091 42.1879 96.8758C28.1143 80.8593 29.8278 56.5888 46.0203 42.6683Z" fill="url(#paint1_linear_226_471)"/>
<path d="M133.471 46.4583C147.545 62.4747 145.831 86.7387 129.639 100.666C117.723 110.912 101.289 112.698 87.8301 106.546C91.0738 105.058 94.1606 103.104 96.9923 100.666C113.185 86.7452 114.898 62.4747 100.825 46.4583C97.11 42.2278 92.663 38.9999 87.8301 36.7876C103.12 29.7756 121.857 33.2428 133.471 46.4583Z" fill="url(#paint2_linear_226_471)"/>
<path d="M34.5296 55.5225L106.774 55.5289C111.594 65.8141 111.516 77.6647 106.774 87.8076L34.5296 87.8141C33.3066 82.6262 32.6592 77.2249 32.6592 71.6683C32.6592 66.1117 33.3001 60.7039 34.5296 55.5225Z" fill="#F15B22"/>
<defs>
<linearGradient id="paint0_linear_226_471" x1="-25.2074" y1="71.6655" x2="62.615" y2="71.6655" gradientUnits="userSpaceOnUse">
<stop offset="0.2239" stop-color="#FFDF00"/>
<stop offset="0.5849" stop-color="#FCAF17"/>
<stop offset="1" stop-color="#F47920"/>
</linearGradient>
<linearGradient id="paint1_linear_226_471" x1="32.6591" y1="71.666" x2="89.1405" y2="71.666" gradientUnits="userSpaceOnUse">
<stop offset="0.1532" stop-color="#F15B22"/>
<stop offset="0.5208" stop-color="#F47920"/>
<stop offset="0.7567" stop-color="#F8971D"/>
<stop offset="0.9278" stop-color="#FCAF17"/>
</linearGradient>
<linearGradient id="paint2_linear_226_471" x1="106.121" y1="71.6269" x2="193.185" y2="69.8897" gradientUnits="userSpaceOnUse">
<stop offset="0.00481683" stop-color="#FCAF17"/>
<stop offset="0.4218" stop-color="#F47920"/>
</linearGradient>
</defs>
</svg>
